<svg version="1.2" xmlns="http://www.w3.org/2000/svg" width="478" height="782"><style>.a{fill:#f9a51a}</style><path class="a" d="M473.9 438.7C479 305.5 366 177.1 366 177.1c17.2 40.7-3.6 103.1-3.6 103.1C330.4 90.4 218.6.4 218.6.4c7.2 118.1-42.7 193.4-42.7 193.4-7.8-32.5-38.4-76-38.4-76 1.7 102.7-35.4 154.5-87.5 222.5-34.8 45.6-43.3 78.5-45.1 95.3 41.8-86.8 130.5-146.7 233.2-146.7 104.3 0 194.2 61.8 235.1 150.7l.6 1.2s0-.5.1-1.1v-1z"/><path class="a" d="M474 546c0 130.1-105.4 235.6-235.5 235.6S3 676.1 3 546s105.4-235.5 235.5-235.5S474 415.9 474 546z"/></svg>